M48
; DRILL file {KiCad 7.0.6} date vie 01 sep 2023 15:44:33
; FORMAT={-:-/ absolute / inch / decimal}
; #@! TF.CreationDate,2023-09-01T15:44:33-05:00
; #@! TF.GenerationSoftware,Kicad,Pcbnew,7.0.6
; #@! TF.FileFunction,Plated,1,2,PTH
FMAT,2
INCH
; #@! TA.AperFunction,Plated,PTH,ComponentDrill
T1C0.0276
; #@! TA.AperFunction,Plated,PTH,ComponentDrill
T2C0.0330
; #@! TA.AperFunction,Plated,PTH,ComponentDrill
T3C0.0429
; #@! TA.AperFunction,Plated,PTH,ComponentDrill
T4C0.0433
; #@! TA.AperFunction,Plated,PTH,ComponentDrill
T5C0.0520
; #@! TA.AperFunction,Plated,PTH,ComponentDrill
T6C0.1063
%
G90
G05
T1
X6.5998Y-3.94
X6.7998Y-3.94
X7.1948Y-4.295
X7.3948Y-4.295
X8.33Y-3.18
X8.33Y-3.48
T2
X6.935Y-3.855
X6.935Y-3.955
X6.935Y-4.055
X7.235Y-3.855
X7.235Y-3.955
X7.235Y-4.055
T3
X7.1395Y-2.0813
X7.1395Y-2.1813
X7.1395Y-2.2813
X7.1395Y-2.3813
X7.1395Y-2.4813
X7.1395Y-2.5813
X7.1395Y-2.6813
X7.1395Y-2.7813
X7.1395Y-2.8813
X7.1395Y-2.9813
X7.1395Y-3.0813
X7.1395Y-3.1813
X7.1395Y-3.2813
X7.1395Y-3.3813
X7.1395Y-3.4813
X8.1057Y-2.0844
X8.1057Y-2.1844
X8.1057Y-2.2844
X8.1057Y-2.3844
X8.1057Y-2.4844
X8.1057Y-2.5844
X8.1057Y-2.6844
X8.1057Y-2.7844
X8.1057Y-2.8844
X8.1057Y-2.9844
X8.1057Y-3.0844
X8.1057Y-3.1844
X8.1057Y-3.2844
X8.1057Y-3.3844
X8.1057Y-3.4844
T4
X6.1606Y-3.9417
X6.3106Y-3.9417
X6.4606Y-3.9417
T5
X6.245Y-2.4381
X6.245Y-2.635
X6.245Y-2.885
X6.245Y-3.0819
X7.6037Y-4.11
X7.8006Y-4.11
X8.6606Y-2.2594
X8.6606Y-2.4563
X8.6606Y-2.6531
X8.6606Y-2.85
X8.6706Y-3.1163
X8.6706Y-3.3131
X8.6706Y-3.51
T6
X6.1334Y-4.235
X6.27Y-2.07
X7.65Y-2.07
X8.78Y-4.24
T0
M30
