%TF.GenerationSoftware,KiCad,Pcbnew,7.0.6*%
%TF.CreationDate,2023-09-01T15:44:31-05:00*%
%TF.ProjectId,basic_decoration_pcb,62617369-635f-4646-9563-6f726174696f,rev?*%
%TF.SameCoordinates,Original*%
%TF.FileFunction,Soldermask,Top*%
%TF.FilePolarity,Negative*%
%FSLAX46Y46*%
G04 Gerber Fmt 4.6, Leading zero omitted, Abs format (unit mm)*
G04 Created by KiCad (PCBNEW 7.0.6) date 2023-09-01 15:44:31*
%MOMM*%
%LPD*%
G01*
G04 APERTURE LIST*
%ADD10R,3.960000X3.000000*%
%ADD11O,3.960000X3.000000*%
%ADD12C,2.125000*%
%ADD13O,2.125000X2.125000*%
%ADD14C,5.400000*%
%ADD15R,2.540000X2.100000*%
%ADD16R,2.540000X1.740000*%
%ADD17R,2.540000X1.950000*%
%ADD18R,2.540000X2.000000*%
%ADD19R,2.125000X3.000000*%
%ADD20O,2.125000X3.125000*%
%ADD21R,3.000000X3.960000*%
%ADD22O,3.000000X3.960000*%
G04 APERTURE END LIST*
D10*
%TO.C,Screen1*%
X219979000Y-57390000D03*
D11*
X219979000Y-62390000D03*
X219979000Y-67390000D03*
X219979000Y-72390000D03*
%TD*%
D12*
%TO.C,R3*%
X211582000Y-80772000D03*
D13*
X211582000Y-88392000D03*
%TD*%
D10*
%TO.C,J3*%
X220233000Y-79154000D03*
D11*
X220233000Y-84154000D03*
X220233000Y-89154000D03*
%TD*%
D14*
%TO.C,H1*%
X159258000Y-52578000D03*
%TD*%
%TO.C,H3*%
X223012000Y-107696000D03*
%TD*%
D15*
%TO.C,J_esp0*%
X181344040Y-52865800D03*
D16*
X181344040Y-55405800D03*
X181344040Y-57945800D03*
D17*
X181344040Y-60485800D03*
X181344040Y-63025800D03*
X181344040Y-65565800D03*
X181344040Y-68105800D03*
X181344040Y-70645800D03*
X181344040Y-73185800D03*
X181344040Y-75725800D03*
X181344040Y-78265800D03*
X181344040Y-80805800D03*
X181344040Y-83345800D03*
X181344040Y-85885800D03*
X181344040Y-88425800D03*
%TD*%
D18*
%TO.C,J_esp1*%
X205884540Y-88504800D03*
D17*
X205884540Y-85964800D03*
X205884540Y-83424800D03*
X205884540Y-80884800D03*
X205884540Y-78344800D03*
X205884540Y-75804800D03*
X205884540Y-73264800D03*
X205884540Y-70724800D03*
X205884540Y-68184800D03*
X205884540Y-65644800D03*
X205884540Y-63104800D03*
X205884540Y-60564800D03*
X205884540Y-58024800D03*
X205884540Y-55484800D03*
X205884540Y-52944800D03*
%TD*%
D14*
%TO.C,H2*%
X155788240Y-107569000D03*
%TD*%
%TO.C,H4*%
X194310000Y-52578000D03*
%TD*%
D19*
%TO.C,Q1*%
X156479000Y-100118250D03*
D20*
X160289000Y-100118250D03*
X164099000Y-100118250D03*
%TD*%
D21*
%TO.C,5V1*%
X198135000Y-104394000D03*
D22*
X193135000Y-104394000D03*
%TD*%
D12*
%TO.C,R2*%
X172713750Y-100076000D03*
D13*
X167633750Y-100076000D03*
%TD*%
D12*
%TO.C,U1*%
X183769000Y-102997000D03*
X183769000Y-100457000D03*
X183769000Y-97917000D03*
X176149000Y-97917000D03*
X176149000Y-100457000D03*
X176149000Y-102997000D03*
%TD*%
%TO.C,R1*%
X187826750Y-109093000D03*
D13*
X182746750Y-109093000D03*
%TD*%
D10*
%TO.C,J_AC_INPUT1*%
X158623000Y-78279000D03*
D11*
X158623000Y-73279000D03*
%TD*%
D10*
%TO.C,J_AC_LOAD1*%
X158623000Y-66929000D03*
D11*
X158623000Y-61929000D03*
%TD*%
M02*
