%TF.GenerationSoftware,KiCad,Pcbnew,7.0.6*%
%TF.CreationDate,2023-09-01T15:44:31-05:00*%
%TF.ProjectId,basic_decoration_pcb,62617369-635f-4646-9563-6f726174696f,rev?*%
%TF.SameCoordinates,Original*%
%TF.FileFunction,Legend,Top*%
%TF.FilePolarity,Positive*%
%FSLAX46Y46*%
G04 Gerber Fmt 4.6, Leading zero omitted, Abs format (unit mm)*
G04 Created by KiCad (PCBNEW 7.0.6) date 2023-09-01 15:44:31*
%MOMM*%
%LPD*%
G01*
G04 APERTURE LIST*
%ADD10C,0.150000*%
%ADD11C,0.120000*%
%ADD12C,0.152400*%
G04 APERTURE END LIST*
D10*
X227536200Y-67699523D02*
X227583819Y-67556666D01*
X227583819Y-67556666D02*
X227583819Y-67318571D01*
X227583819Y-67318571D02*
X227536200Y-67223333D01*
X227536200Y-67223333D02*
X227488580Y-67175714D01*
X227488580Y-67175714D02*
X227393342Y-67128095D01*
X227393342Y-67128095D02*
X227298104Y-67128095D01*
X227298104Y-67128095D02*
X227202866Y-67175714D01*
X227202866Y-67175714D02*
X227155247Y-67223333D01*
X227155247Y-67223333D02*
X227107628Y-67318571D01*
X227107628Y-67318571D02*
X227060009Y-67509047D01*
X227060009Y-67509047D02*
X227012390Y-67604285D01*
X227012390Y-67604285D02*
X226964771Y-67651904D01*
X226964771Y-67651904D02*
X226869533Y-67699523D01*
X226869533Y-67699523D02*
X226774295Y-67699523D01*
X226774295Y-67699523D02*
X226679057Y-67651904D01*
X226679057Y-67651904D02*
X226631438Y-67604285D01*
X226631438Y-67604285D02*
X226583819Y-67509047D01*
X226583819Y-67509047D02*
X226583819Y-67270952D01*
X226583819Y-67270952D02*
X226631438Y-67128095D01*
X227536200Y-66270952D02*
X227583819Y-66366190D01*
X227583819Y-66366190D02*
X227583819Y-66556666D01*
X227583819Y-66556666D02*
X227536200Y-66651904D01*
X227536200Y-66651904D02*
X227488580Y-66699523D01*
X227488580Y-66699523D02*
X227393342Y-66747142D01*
X227393342Y-66747142D02*
X227107628Y-66747142D01*
X227107628Y-66747142D02*
X227012390Y-66699523D01*
X227012390Y-66699523D02*
X226964771Y-66651904D01*
X226964771Y-66651904D02*
X226917152Y-66556666D01*
X226917152Y-66556666D02*
X226917152Y-66366190D01*
X226917152Y-66366190D02*
X226964771Y-66270952D01*
X227583819Y-65842380D02*
X226917152Y-65842380D01*
X227107628Y-65842380D02*
X227012390Y-65794761D01*
X227012390Y-65794761D02*
X226964771Y-65747142D01*
X226964771Y-65747142D02*
X226917152Y-65651904D01*
X226917152Y-65651904D02*
X226917152Y-65556666D01*
X227536200Y-64842380D02*
X227583819Y-64937618D01*
X227583819Y-64937618D02*
X227583819Y-65128094D01*
X227583819Y-65128094D02*
X227536200Y-65223332D01*
X227536200Y-65223332D02*
X227440961Y-65270951D01*
X227440961Y-65270951D02*
X227060009Y-65270951D01*
X227060009Y-65270951D02*
X226964771Y-65223332D01*
X226964771Y-65223332D02*
X226917152Y-65128094D01*
X226917152Y-65128094D02*
X226917152Y-64937618D01*
X226917152Y-64937618D02*
X226964771Y-64842380D01*
X226964771Y-64842380D02*
X227060009Y-64794761D01*
X227060009Y-64794761D02*
X227155247Y-64794761D01*
X227155247Y-64794761D02*
X227250485Y-65270951D01*
X227536200Y-63985237D02*
X227583819Y-64080475D01*
X227583819Y-64080475D02*
X227583819Y-64270951D01*
X227583819Y-64270951D02*
X227536200Y-64366189D01*
X227536200Y-64366189D02*
X227440961Y-64413808D01*
X227440961Y-64413808D02*
X227060009Y-64413808D01*
X227060009Y-64413808D02*
X226964771Y-64366189D01*
X226964771Y-64366189D02*
X226917152Y-64270951D01*
X226917152Y-64270951D02*
X226917152Y-64080475D01*
X226917152Y-64080475D02*
X226964771Y-63985237D01*
X226964771Y-63985237D02*
X227060009Y-63937618D01*
X227060009Y-63937618D02*
X227155247Y-63937618D01*
X227155247Y-63937618D02*
X227250485Y-64413808D01*
X226917152Y-63509046D02*
X227583819Y-63509046D01*
X227012390Y-63509046D02*
X226964771Y-63461427D01*
X226964771Y-63461427D02*
X226917152Y-63366189D01*
X226917152Y-63366189D02*
X226917152Y-63223332D01*
X226917152Y-63223332D02*
X226964771Y-63128094D01*
X226964771Y-63128094D02*
X227060009Y-63080475D01*
X227060009Y-63080475D02*
X227583819Y-63080475D01*
X227583819Y-62080475D02*
X227583819Y-62651903D01*
X227583819Y-62366189D02*
X226583819Y-62366189D01*
X226583819Y-62366189D02*
X226726676Y-62461427D01*
X226726676Y-62461427D02*
X226821914Y-62556665D01*
X226821914Y-62556665D02*
X226869533Y-62651903D01*
X213956819Y-84748666D02*
X213480628Y-85081999D01*
X213956819Y-85320094D02*
X212956819Y-85320094D01*
X212956819Y-85320094D02*
X212956819Y-84939142D01*
X212956819Y-84939142D02*
X213004438Y-84843904D01*
X213004438Y-84843904D02*
X213052057Y-84796285D01*
X213052057Y-84796285D02*
X213147295Y-84748666D01*
X213147295Y-84748666D02*
X213290152Y-84748666D01*
X213290152Y-84748666D02*
X213385390Y-84796285D01*
X213385390Y-84796285D02*
X213433009Y-84843904D01*
X213433009Y-84843904D02*
X213480628Y-84939142D01*
X213480628Y-84939142D02*
X213480628Y-85320094D01*
X212956819Y-84415332D02*
X212956819Y-83796285D01*
X212956819Y-83796285D02*
X213337771Y-84129618D01*
X213337771Y-84129618D02*
X213337771Y-83986761D01*
X213337771Y-83986761D02*
X213385390Y-83891523D01*
X213385390Y-83891523D02*
X213433009Y-83843904D01*
X213433009Y-83843904D02*
X213528247Y-83796285D01*
X213528247Y-83796285D02*
X213766342Y-83796285D01*
X213766342Y-83796285D02*
X213861580Y-83843904D01*
X213861580Y-83843904D02*
X213909200Y-83891523D01*
X213909200Y-83891523D02*
X213956819Y-83986761D01*
X213956819Y-83986761D02*
X213956819Y-84272475D01*
X213956819Y-84272475D02*
X213909200Y-84367713D01*
X213909200Y-84367713D02*
X213861580Y-84415332D01*
X226787819Y-84487333D02*
X227502104Y-84487333D01*
X227502104Y-84487333D02*
X227644961Y-84534952D01*
X227644961Y-84534952D02*
X227740200Y-84630190D01*
X227740200Y-84630190D02*
X227787819Y-84773047D01*
X227787819Y-84773047D02*
X227787819Y-84868285D01*
X226787819Y-84106380D02*
X226787819Y-83487333D01*
X226787819Y-83487333D02*
X227168771Y-83820666D01*
X227168771Y-83820666D02*
X227168771Y-83677809D01*
X227168771Y-83677809D02*
X227216390Y-83582571D01*
X227216390Y-83582571D02*
X227264009Y-83534952D01*
X227264009Y-83534952D02*
X227359247Y-83487333D01*
X227359247Y-83487333D02*
X227597342Y-83487333D01*
X227597342Y-83487333D02*
X227692580Y-83534952D01*
X227692580Y-83534952D02*
X227740200Y-83582571D01*
X227740200Y-83582571D02*
X227787819Y-83677809D01*
X227787819Y-83677809D02*
X227787819Y-83963523D01*
X227787819Y-83963523D02*
X227740200Y-84058761D01*
X227740200Y-84058761D02*
X227692580Y-84106380D01*
X158496095Y-49332819D02*
X158496095Y-48332819D01*
X158496095Y-48809009D02*
X159067523Y-48809009D01*
X159067523Y-49332819D02*
X159067523Y-48332819D01*
X160067523Y-49332819D02*
X159496095Y-49332819D01*
X159781809Y-49332819D02*
X159781809Y-48332819D01*
X159781809Y-48332819D02*
X159686571Y-48475676D01*
X159686571Y-48475676D02*
X159591333Y-48570914D01*
X159591333Y-48570914D02*
X159496095Y-48618533D01*
X222250095Y-104450819D02*
X222250095Y-103450819D01*
X222250095Y-103927009D02*
X222821523Y-103927009D01*
X222821523Y-104450819D02*
X222821523Y-103450819D01*
X223202476Y-103450819D02*
X223821523Y-103450819D01*
X223821523Y-103450819D02*
X223488190Y-103831771D01*
X223488190Y-103831771D02*
X223631047Y-103831771D01*
X223631047Y-103831771D02*
X223726285Y-103879390D01*
X223726285Y-103879390D02*
X223773904Y-103927009D01*
X223773904Y-103927009D02*
X223821523Y-104022247D01*
X223821523Y-104022247D02*
X223821523Y-104260342D01*
X223821523Y-104260342D02*
X223773904Y-104355580D01*
X223773904Y-104355580D02*
X223726285Y-104403200D01*
X223726285Y-104403200D02*
X223631047Y-104450819D01*
X223631047Y-104450819D02*
X223345333Y-104450819D01*
X223345333Y-104450819D02*
X223250095Y-104403200D01*
X223250095Y-104403200D02*
X223202476Y-104355580D01*
X186281359Y-73105800D02*
X186995644Y-73105800D01*
X186995644Y-73105800D02*
X187138501Y-73153419D01*
X187138501Y-73153419D02*
X187233740Y-73248657D01*
X187233740Y-73248657D02*
X187281359Y-73391514D01*
X187281359Y-73391514D02*
X187281359Y-73486752D01*
X187376597Y-72867705D02*
X187376597Y-72105800D01*
X187233740Y-71486752D02*
X187281359Y-71581990D01*
X187281359Y-71581990D02*
X187281359Y-71772466D01*
X187281359Y-71772466D02*
X187233740Y-71867704D01*
X187233740Y-71867704D02*
X187138501Y-71915323D01*
X187138501Y-71915323D02*
X186757549Y-71915323D01*
X186757549Y-71915323D02*
X186662311Y-71867704D01*
X186662311Y-71867704D02*
X186614692Y-71772466D01*
X186614692Y-71772466D02*
X186614692Y-71581990D01*
X186614692Y-71581990D02*
X186662311Y-71486752D01*
X186662311Y-71486752D02*
X186757549Y-71439133D01*
X186757549Y-71439133D02*
X186852787Y-71439133D01*
X186852787Y-71439133D02*
X186948025Y-71915323D01*
X187233740Y-71058180D02*
X187281359Y-70962942D01*
X187281359Y-70962942D02*
X187281359Y-70772466D01*
X187281359Y-70772466D02*
X187233740Y-70677228D01*
X187233740Y-70677228D02*
X187138501Y-70629609D01*
X187138501Y-70629609D02*
X187090882Y-70629609D01*
X187090882Y-70629609D02*
X186995644Y-70677228D01*
X186995644Y-70677228D02*
X186948025Y-70772466D01*
X186948025Y-70772466D02*
X186948025Y-70915323D01*
X186948025Y-70915323D02*
X186900406Y-71010561D01*
X186900406Y-71010561D02*
X186805168Y-71058180D01*
X186805168Y-71058180D02*
X186757549Y-71058180D01*
X186757549Y-71058180D02*
X186662311Y-71010561D01*
X186662311Y-71010561D02*
X186614692Y-70915323D01*
X186614692Y-70915323D02*
X186614692Y-70772466D01*
X186614692Y-70772466D02*
X186662311Y-70677228D01*
X186614692Y-70201037D02*
X187614692Y-70201037D01*
X186662311Y-70201037D02*
X186614692Y-70105799D01*
X186614692Y-70105799D02*
X186614692Y-69915323D01*
X186614692Y-69915323D02*
X186662311Y-69820085D01*
X186662311Y-69820085D02*
X186709930Y-69772466D01*
X186709930Y-69772466D02*
X186805168Y-69724847D01*
X186805168Y-69724847D02*
X187090882Y-69724847D01*
X187090882Y-69724847D02*
X187186120Y-69772466D01*
X187186120Y-69772466D02*
X187233740Y-69820085D01*
X187233740Y-69820085D02*
X187281359Y-69915323D01*
X187281359Y-69915323D02*
X187281359Y-70105799D01*
X187281359Y-70105799D02*
X187233740Y-70201037D01*
X186281359Y-69105799D02*
X186281359Y-69010561D01*
X186281359Y-69010561D02*
X186328978Y-68915323D01*
X186328978Y-68915323D02*
X186376597Y-68867704D01*
X186376597Y-68867704D02*
X186471835Y-68820085D01*
X186471835Y-68820085D02*
X186662311Y-68772466D01*
X186662311Y-68772466D02*
X186900406Y-68772466D01*
X186900406Y-68772466D02*
X187090882Y-68820085D01*
X187090882Y-68820085D02*
X187186120Y-68867704D01*
X187186120Y-68867704D02*
X187233740Y-68915323D01*
X187233740Y-68915323D02*
X187281359Y-69010561D01*
X187281359Y-69010561D02*
X187281359Y-69105799D01*
X187281359Y-69105799D02*
X187233740Y-69201037D01*
X187233740Y-69201037D02*
X187186120Y-69248656D01*
X187186120Y-69248656D02*
X187090882Y-69296275D01*
X187090882Y-69296275D02*
X186900406Y-69343894D01*
X186900406Y-69343894D02*
X186662311Y-69343894D01*
X186662311Y-69343894D02*
X186471835Y-69296275D01*
X186471835Y-69296275D02*
X186376597Y-69248656D01*
X186376597Y-69248656D02*
X186328978Y-69201037D01*
X186328978Y-69201037D02*
X186281359Y-69105799D01*
X201026859Y-72324800D02*
X201741144Y-72324800D01*
X201741144Y-72324800D02*
X201884001Y-72372419D01*
X201884001Y-72372419D02*
X201979240Y-72467657D01*
X201979240Y-72467657D02*
X202026859Y-72610514D01*
X202026859Y-72610514D02*
X202026859Y-72705752D01*
X202122097Y-72086705D02*
X202122097Y-71324800D01*
X201979240Y-70705752D02*
X202026859Y-70800990D01*
X202026859Y-70800990D02*
X202026859Y-70991466D01*
X202026859Y-70991466D02*
X201979240Y-71086704D01*
X201979240Y-71086704D02*
X201884001Y-71134323D01*
X201884001Y-71134323D02*
X201503049Y-71134323D01*
X201503049Y-71134323D02*
X201407811Y-71086704D01*
X201407811Y-71086704D02*
X201360192Y-70991466D01*
X201360192Y-70991466D02*
X201360192Y-70800990D01*
X201360192Y-70800990D02*
X201407811Y-70705752D01*
X201407811Y-70705752D02*
X201503049Y-70658133D01*
X201503049Y-70658133D02*
X201598287Y-70658133D01*
X201598287Y-70658133D02*
X201693525Y-71134323D01*
X201979240Y-70277180D02*
X202026859Y-70181942D01*
X202026859Y-70181942D02*
X202026859Y-69991466D01*
X202026859Y-69991466D02*
X201979240Y-69896228D01*
X201979240Y-69896228D02*
X201884001Y-69848609D01*
X201884001Y-69848609D02*
X201836382Y-69848609D01*
X201836382Y-69848609D02*
X201741144Y-69896228D01*
X201741144Y-69896228D02*
X201693525Y-69991466D01*
X201693525Y-69991466D02*
X201693525Y-70134323D01*
X201693525Y-70134323D02*
X201645906Y-70229561D01*
X201645906Y-70229561D02*
X201550668Y-70277180D01*
X201550668Y-70277180D02*
X201503049Y-70277180D01*
X201503049Y-70277180D02*
X201407811Y-70229561D01*
X201407811Y-70229561D02*
X201360192Y-70134323D01*
X201360192Y-70134323D02*
X201360192Y-69991466D01*
X201360192Y-69991466D02*
X201407811Y-69896228D01*
X201360192Y-69420037D02*
X202360192Y-69420037D01*
X201407811Y-69420037D02*
X201360192Y-69324799D01*
X201360192Y-69324799D02*
X201360192Y-69134323D01*
X201360192Y-69134323D02*
X201407811Y-69039085D01*
X201407811Y-69039085D02*
X201455430Y-68991466D01*
X201455430Y-68991466D02*
X201550668Y-68943847D01*
X201550668Y-68943847D02*
X201836382Y-68943847D01*
X201836382Y-68943847D02*
X201931620Y-68991466D01*
X201931620Y-68991466D02*
X201979240Y-69039085D01*
X201979240Y-69039085D02*
X202026859Y-69134323D01*
X202026859Y-69134323D02*
X202026859Y-69324799D01*
X202026859Y-69324799D02*
X201979240Y-69420037D01*
X202026859Y-67991466D02*
X202026859Y-68562894D01*
X202026859Y-68277180D02*
X201026859Y-68277180D01*
X201026859Y-68277180D02*
X201169716Y-68372418D01*
X201169716Y-68372418D02*
X201264954Y-68467656D01*
X201264954Y-68467656D02*
X201312573Y-68562894D01*
X155026335Y-104323819D02*
X155026335Y-103323819D01*
X155026335Y-103800009D02*
X155597763Y-103800009D01*
X155597763Y-104323819D02*
X155597763Y-103323819D01*
X156026335Y-103419057D02*
X156073954Y-103371438D01*
X156073954Y-103371438D02*
X156169192Y-103323819D01*
X156169192Y-103323819D02*
X156407287Y-103323819D01*
X156407287Y-103323819D02*
X156502525Y-103371438D01*
X156502525Y-103371438D02*
X156550144Y-103419057D01*
X156550144Y-103419057D02*
X156597763Y-103514295D01*
X156597763Y-103514295D02*
X156597763Y-103609533D01*
X156597763Y-103609533D02*
X156550144Y-103752390D01*
X156550144Y-103752390D02*
X155978716Y-104323819D01*
X155978716Y-104323819D02*
X156597763Y-104323819D01*
X193548095Y-49332819D02*
X193548095Y-48332819D01*
X193548095Y-48809009D02*
X194119523Y-48809009D01*
X194119523Y-49332819D02*
X194119523Y-48332819D01*
X195024285Y-48666152D02*
X195024285Y-49332819D01*
X194786190Y-48285200D02*
X194548095Y-48999485D01*
X194548095Y-48999485D02*
X195167142Y-48999485D01*
X160193761Y-96398307D02*
X160098523Y-96350688D01*
X160098523Y-96350688D02*
X160003285Y-96255450D01*
X160003285Y-96255450D02*
X159860428Y-96112592D01*
X159860428Y-96112592D02*
X159765190Y-96064973D01*
X159765190Y-96064973D02*
X159669952Y-96064973D01*
X159717571Y-96303069D02*
X159622333Y-96255450D01*
X159622333Y-96255450D02*
X159527095Y-96160211D01*
X159527095Y-96160211D02*
X159479476Y-95969735D01*
X159479476Y-95969735D02*
X159479476Y-95636402D01*
X159479476Y-95636402D02*
X159527095Y-95445926D01*
X159527095Y-95445926D02*
X159622333Y-95350688D01*
X159622333Y-95350688D02*
X159717571Y-95303069D01*
X159717571Y-95303069D02*
X159908047Y-95303069D01*
X159908047Y-95303069D02*
X160003285Y-95350688D01*
X160003285Y-95350688D02*
X160098523Y-95445926D01*
X160098523Y-95445926D02*
X160146142Y-95636402D01*
X160146142Y-95636402D02*
X160146142Y-95969735D01*
X160146142Y-95969735D02*
X160098523Y-96160211D01*
X160098523Y-96160211D02*
X160003285Y-96255450D01*
X160003285Y-96255450D02*
X159908047Y-96303069D01*
X159908047Y-96303069D02*
X159717571Y-96303069D01*
X161098523Y-96303069D02*
X160527095Y-96303069D01*
X160812809Y-96303069D02*
X160812809Y-95303069D01*
X160812809Y-95303069D02*
X160717571Y-95445926D01*
X160717571Y-95445926D02*
X160622333Y-95541164D01*
X160622333Y-95541164D02*
X160527095Y-95588783D01*
X199388333Y-110838819D02*
X198912143Y-110838819D01*
X198912143Y-110838819D02*
X198864524Y-111315009D01*
X198864524Y-111315009D02*
X198912143Y-111267390D01*
X198912143Y-111267390D02*
X199007381Y-111219771D01*
X199007381Y-111219771D02*
X199245476Y-111219771D01*
X199245476Y-111219771D02*
X199340714Y-111267390D01*
X199340714Y-111267390D02*
X199388333Y-111315009D01*
X199388333Y-111315009D02*
X199435952Y-111410247D01*
X199435952Y-111410247D02*
X199435952Y-111648342D01*
X199435952Y-111648342D02*
X199388333Y-111743580D01*
X199388333Y-111743580D02*
X199340714Y-111791200D01*
X199340714Y-111791200D02*
X199245476Y-111838819D01*
X199245476Y-111838819D02*
X199007381Y-111838819D01*
X199007381Y-111838819D02*
X198912143Y-111791200D01*
X198912143Y-111791200D02*
X198864524Y-111743580D01*
X199721667Y-110838819D02*
X200055000Y-111838819D01*
X200055000Y-111838819D02*
X200388333Y-110838819D01*
X201245476Y-111838819D02*
X200674048Y-111838819D01*
X200959762Y-111838819D02*
X200959762Y-110838819D01*
X200959762Y-110838819D02*
X200864524Y-110981676D01*
X200864524Y-110981676D02*
X200769286Y-111076914D01*
X200769286Y-111076914D02*
X200674048Y-111124533D01*
X170007083Y-102450819D02*
X169673750Y-101974628D01*
X169435655Y-102450819D02*
X169435655Y-101450819D01*
X169435655Y-101450819D02*
X169816607Y-101450819D01*
X169816607Y-101450819D02*
X169911845Y-101498438D01*
X169911845Y-101498438D02*
X169959464Y-101546057D01*
X169959464Y-101546057D02*
X170007083Y-101641295D01*
X170007083Y-101641295D02*
X170007083Y-101784152D01*
X170007083Y-101784152D02*
X169959464Y-101879390D01*
X169959464Y-101879390D02*
X169911845Y-101927009D01*
X169911845Y-101927009D02*
X169816607Y-101974628D01*
X169816607Y-101974628D02*
X169435655Y-101974628D01*
X170388036Y-101546057D02*
X170435655Y-101498438D01*
X170435655Y-101498438D02*
X170530893Y-101450819D01*
X170530893Y-101450819D02*
X170768988Y-101450819D01*
X170768988Y-101450819D02*
X170864226Y-101498438D01*
X170864226Y-101498438D02*
X170911845Y-101546057D01*
X170911845Y-101546057D02*
X170959464Y-101641295D01*
X170959464Y-101641295D02*
X170959464Y-101736533D01*
X170959464Y-101736533D02*
X170911845Y-101879390D01*
X170911845Y-101879390D02*
X170340417Y-102450819D01*
X170340417Y-102450819D02*
X170959464Y-102450819D01*
X180720904Y-101002180D02*
X180720904Y-100192657D01*
X180720904Y-100192657D02*
X180673285Y-100097419D01*
X180673285Y-100097419D02*
X180625666Y-100049800D01*
X180625666Y-100049800D02*
X180530428Y-100002180D01*
X180530428Y-100002180D02*
X180339952Y-100002180D01*
X180339952Y-100002180D02*
X180244714Y-100049800D01*
X180244714Y-100049800D02*
X180197095Y-100097419D01*
X180197095Y-100097419D02*
X180149476Y-100192657D01*
X180149476Y-100192657D02*
X180149476Y-101002180D01*
X179149476Y-100002180D02*
X179720904Y-100002180D01*
X179435190Y-100002180D02*
X179435190Y-101002180D01*
X179435190Y-101002180D02*
X179530428Y-100859323D01*
X179530428Y-100859323D02*
X179625666Y-100764085D01*
X179625666Y-100764085D02*
X179720904Y-100716466D01*
X183768999Y-104977280D02*
X183768999Y-104739185D01*
X184007094Y-104834423D02*
X183768999Y-104739185D01*
X183768999Y-104739185D02*
X183530904Y-104834423D01*
X183911856Y-104548709D02*
X183768999Y-104739185D01*
X183768999Y-104739185D02*
X183626142Y-104548709D01*
X183769000Y-103886919D02*
X183769000Y-104125014D01*
X183530905Y-104029776D02*
X183769000Y-104125014D01*
X183769000Y-104125014D02*
X184007095Y-104029776D01*
X183626143Y-104315490D02*
X183769000Y-104125014D01*
X183769000Y-104125014D02*
X183911857Y-104315490D01*
X185120083Y-111467819D02*
X184786750Y-110991628D01*
X184548655Y-111467819D02*
X184548655Y-110467819D01*
X184548655Y-110467819D02*
X184929607Y-110467819D01*
X184929607Y-110467819D02*
X185024845Y-110515438D01*
X185024845Y-110515438D02*
X185072464Y-110563057D01*
X185072464Y-110563057D02*
X185120083Y-110658295D01*
X185120083Y-110658295D02*
X185120083Y-110801152D01*
X185120083Y-110801152D02*
X185072464Y-110896390D01*
X185072464Y-110896390D02*
X185024845Y-110944009D01*
X185024845Y-110944009D02*
X184929607Y-110991628D01*
X184929607Y-110991628D02*
X184548655Y-110991628D01*
X186072464Y-111467819D02*
X185501036Y-111467819D01*
X185786750Y-111467819D02*
X185786750Y-110467819D01*
X185786750Y-110467819D02*
X185691512Y-110610676D01*
X185691512Y-110610676D02*
X185596274Y-110705914D01*
X185596274Y-110705914D02*
X185501036Y-110753533D01*
D11*
%TO.C,Screen1*%
X226279000Y-54740000D02*
X226279000Y-75540000D01*
X213679000Y-54740000D02*
X226279000Y-54740000D01*
X221479000Y-75040000D02*
X216079000Y-75040000D01*
X216079000Y-75040000D02*
X216379000Y-75590000D01*
X214629000Y-75040000D02*
X213679000Y-75040000D01*
X213679000Y-75040000D02*
X213679000Y-54740000D01*
X226279000Y-75540000D02*
X221229000Y-75540000D01*
X221229000Y-75540000D02*
X221479000Y-75040000D01*
X216379000Y-75590000D02*
X214329000Y-75590000D01*
X214329000Y-75590000D02*
X214629000Y-75040000D01*
%TO.C,R3*%
X211582000Y-81712000D02*
X211582000Y-82662000D01*
X212502000Y-82662000D02*
X210662000Y-82662000D01*
X210662000Y-82662000D02*
X210662000Y-86502000D01*
X212502000Y-86502000D02*
X212502000Y-82662000D01*
X210662000Y-86502000D02*
X212502000Y-86502000D01*
X211582000Y-87452000D02*
X211582000Y-86502000D01*
%TO.C,J3*%
X226533000Y-76504000D02*
X213933000Y-76504000D01*
X213933000Y-76504000D02*
X213933000Y-91904000D01*
X221733000Y-91904000D02*
X221483000Y-92404000D01*
X216333000Y-91904000D02*
X221733000Y-91904000D01*
X214883000Y-91904000D02*
X214583000Y-92404000D01*
X213933000Y-91904000D02*
X214883000Y-91904000D01*
X226533000Y-92404000D02*
X226533000Y-76504000D01*
X221483000Y-92404000D02*
X226533000Y-92404000D01*
X216583000Y-92404000D02*
X216333000Y-91904000D01*
X214583000Y-92404000D02*
X216583000Y-92404000D01*
%TO.C,J_esp0*%
X184304040Y-49955800D02*
X184304040Y-52365800D01*
X181894040Y-49955800D02*
X184304040Y-49955800D01*
X184004040Y-50255800D02*
X181474040Y-50255800D01*
X181474040Y-50255800D02*
X181474040Y-50385800D01*
X179664040Y-50255800D02*
X178684040Y-50255800D01*
X178684040Y-50255800D02*
X178684040Y-66725800D01*
X181474040Y-50385800D02*
X179664040Y-50385800D01*
X179664040Y-50385800D02*
X179664040Y-50255800D01*
X178684040Y-66725800D02*
X177184040Y-66725800D01*
X177184040Y-66725800D02*
X177184040Y-74565800D01*
X178684040Y-74565800D02*
X178684040Y-91035800D01*
X177184040Y-74565800D02*
X178684040Y-74565800D01*
X181474040Y-90905800D02*
X181474040Y-91035800D01*
X179664040Y-90905800D02*
X181474040Y-90905800D01*
X184004040Y-91035800D02*
X184004040Y-50255800D01*
X181474040Y-91035800D02*
X184004040Y-91035800D01*
X179664040Y-91035800D02*
X179664040Y-90905800D01*
X178684040Y-91035800D02*
X179664040Y-91035800D01*
%TO.C,J_esp1*%
X202924540Y-91414800D02*
X202924540Y-89004800D01*
X205334540Y-91414800D02*
X202924540Y-91414800D01*
X203224540Y-91114800D02*
X205754540Y-91114800D01*
X205754540Y-91114800D02*
X205754540Y-90984800D01*
X207564540Y-91114800D02*
X208544540Y-91114800D01*
X208544540Y-91114800D02*
X208544540Y-74644800D01*
X205754540Y-90984800D02*
X207564540Y-90984800D01*
X207564540Y-90984800D02*
X207564540Y-91114800D01*
X208544540Y-74644800D02*
X210044540Y-74644800D01*
X210044540Y-74644800D02*
X210044540Y-66804800D01*
X208544540Y-66804800D02*
X208544540Y-50334800D01*
X210044540Y-66804800D02*
X208544540Y-66804800D01*
X205754540Y-50464800D02*
X205754540Y-50334800D01*
X207564540Y-50464800D02*
X205754540Y-50464800D01*
X203224540Y-50334800D02*
X203224540Y-91114800D01*
X205754540Y-50334800D02*
X203224540Y-50334800D01*
X207564540Y-50334800D02*
X207564540Y-50464800D01*
X208544540Y-50334800D02*
X207564540Y-50334800D01*
%TO.C,Q1*%
X155169000Y-96848250D02*
X155169000Y-101489250D01*
X155169000Y-96848250D02*
X165409000Y-96848250D01*
X155169000Y-98358250D02*
X165409000Y-98358250D01*
X155169000Y-101489250D02*
X165409000Y-101489250D01*
X158439000Y-96848250D02*
X158439000Y-98358250D01*
X162140000Y-96848250D02*
X162140000Y-98358250D01*
X165409000Y-96848250D02*
X165409000Y-101489250D01*
%TO.C,5V1*%
X200785000Y-110694000D02*
X200785000Y-98094000D01*
X200785000Y-98094000D02*
X190435000Y-98094000D01*
X190435000Y-105894000D02*
X189935000Y-105594000D01*
X190435000Y-100494000D02*
X190435000Y-105894000D01*
X190435000Y-99044000D02*
X189935000Y-98794000D01*
X190435000Y-98094000D02*
X190435000Y-99044000D01*
X189935000Y-110694000D02*
X200785000Y-110694000D01*
X189935000Y-105594000D02*
X189935000Y-110694000D01*
X189935000Y-100744000D02*
X190435000Y-100494000D01*
X189935000Y-100694000D02*
X189935000Y-100744000D01*
X189935000Y-98794000D02*
X189935000Y-100694000D01*
%TO.C,R2*%
X171793750Y-100076000D02*
X168633750Y-100076000D01*
X173633750Y-100076000D02*
G75*
G03*
X173633750Y-100076000I-920000J0D01*
G01*
D12*
%TO.C,U1*%
X183136001Y-105029000D02*
X183136001Y-103778682D01*
X183136001Y-102215318D02*
X183136001Y-101238682D01*
X183136001Y-99675318D02*
X183136001Y-98698682D01*
X183136001Y-97135318D02*
X183136001Y-95885000D01*
X183136001Y-95885000D02*
X176781999Y-95885000D01*
X176781999Y-105029000D02*
X183136001Y-105029000D01*
X176781999Y-103778682D02*
X176781999Y-105029000D01*
X176781999Y-101238682D02*
X176781999Y-102215318D01*
X176781999Y-98698682D02*
X176781999Y-99675318D01*
X176781999Y-95885000D02*
X176781999Y-97135318D01*
D11*
%TO.C,R1*%
X186906750Y-109093000D02*
X183746750Y-109093000D01*
X188746750Y-109093000D02*
G75*
G03*
X188746750Y-109093000I-920000J0D01*
G01*
%TD*%
M02*
