%TF.GenerationSoftware,KiCad,Pcbnew,7.0.6*%
%TF.CreationDate,2023-09-01T15:44:30-05:00*%
%TF.ProjectId,basic_decoration_pcb,62617369-635f-4646-9563-6f726174696f,rev?*%
%TF.SameCoordinates,Original*%
%TF.FileFunction,Copper,L1,Top*%
%TF.FilePolarity,Positive*%
%FSLAX46Y46*%
G04 Gerber Fmt 4.6, Leading zero omitted, Abs format (unit mm)*
G04 Created by KiCad (PCBNEW 7.0.6) date 2023-09-01 15:44:30*
%MOMM*%
%LPD*%
G01*
G04 APERTURE LIST*
%TA.AperFunction,NonConductor*%
%ADD10C,0.200000*%
%TD*%
%ADD11C,0.300000*%
%TA.AperFunction,NonConductor*%
%ADD12C,0.300000*%
%TD*%
%TA.AperFunction,ComponentPad*%
%ADD13R,3.960000X3.000000*%
%TD*%
%TA.AperFunction,ComponentPad*%
%ADD14O,3.960000X3.000000*%
%TD*%
%TA.AperFunction,ComponentPad*%
%ADD15C,2.125000*%
%TD*%
%TA.AperFunction,ComponentPad*%
%ADD16O,2.125000X2.125000*%
%TD*%
%TA.AperFunction,ComponentPad*%
%ADD17C,5.400000*%
%TD*%
%TA.AperFunction,ComponentPad*%
%ADD18R,2.540000X2.100000*%
%TD*%
%TA.AperFunction,ComponentPad*%
%ADD19R,2.540000X1.740000*%
%TD*%
%TA.AperFunction,ComponentPad*%
%ADD20R,2.540000X1.950000*%
%TD*%
%TA.AperFunction,ComponentPad*%
%ADD21R,2.540000X2.000000*%
%TD*%
%TA.AperFunction,ComponentPad*%
%ADD22R,2.125000X3.000000*%
%TD*%
%TA.AperFunction,ComponentPad*%
%ADD23O,2.125000X3.125000*%
%TD*%
%TA.AperFunction,ComponentPad*%
%ADD24R,3.000000X3.960000*%
%TD*%
%TA.AperFunction,ComponentPad*%
%ADD25O,3.000000X3.960000*%
%TD*%
%TA.AperFunction,Conductor*%
%ADD26C,1.333000*%
%TD*%
G04 APERTURE END LIST*
D10*
X151978240Y-48895000D02*
X226730440Y-48895000D01*
X226730440Y-111125000D01*
X151978240Y-111125000D01*
X151978240Y-48895000D01*
D11*
D12*
X187069796Y-88089828D02*
X186355510Y-88089828D01*
X186355510Y-88089828D02*
X186284082Y-88804114D01*
X186284082Y-88804114D02*
X186355510Y-88732685D01*
X186355510Y-88732685D02*
X186498368Y-88661257D01*
X186498368Y-88661257D02*
X186855510Y-88661257D01*
X186855510Y-88661257D02*
X186998368Y-88732685D01*
X186998368Y-88732685D02*
X187069796Y-88804114D01*
X187069796Y-88804114D02*
X187141225Y-88946971D01*
X187141225Y-88946971D02*
X187141225Y-89304114D01*
X187141225Y-89304114D02*
X187069796Y-89446971D01*
X187069796Y-89446971D02*
X186998368Y-89518400D01*
X186998368Y-89518400D02*
X186855510Y-89589828D01*
X186855510Y-89589828D02*
X186498368Y-89589828D01*
X186498368Y-89589828D02*
X186355510Y-89518400D01*
X186355510Y-89518400D02*
X186284082Y-89446971D01*
X187569796Y-88089828D02*
X188069796Y-89589828D01*
X188069796Y-89589828D02*
X188569796Y-88089828D01*
D11*
D12*
X211264571Y-73004900D02*
X212407429Y-73004900D01*
X211836000Y-73576328D02*
X211836000Y-72433471D01*
D11*
D12*
X210693143Y-56725185D02*
X210764571Y-56653757D01*
X210764571Y-56653757D02*
X210907429Y-56582328D01*
X210907429Y-56582328D02*
X211264571Y-56582328D01*
X211264571Y-56582328D02*
X211407429Y-56653757D01*
X211407429Y-56653757D02*
X211478857Y-56725185D01*
X211478857Y-56725185D02*
X211550286Y-56868042D01*
X211550286Y-56868042D02*
X211550286Y-57010900D01*
X211550286Y-57010900D02*
X211478857Y-57225185D01*
X211478857Y-57225185D02*
X210621714Y-58082328D01*
X210621714Y-58082328D02*
X211550286Y-58082328D01*
X212121714Y-56725185D02*
X212193142Y-56653757D01*
X212193142Y-56653757D02*
X212336000Y-56582328D01*
X212336000Y-56582328D02*
X212693142Y-56582328D01*
X212693142Y-56582328D02*
X212836000Y-56653757D01*
X212836000Y-56653757D02*
X212907428Y-56725185D01*
X212907428Y-56725185D02*
X212978857Y-56868042D01*
X212978857Y-56868042D02*
X212978857Y-57010900D01*
X212978857Y-57010900D02*
X212907428Y-57225185D01*
X212907428Y-57225185D02*
X212050285Y-58082328D01*
X212050285Y-58082328D02*
X212978857Y-58082328D01*
D11*
D12*
X186379225Y-85240257D02*
X186236368Y-85168828D01*
X186236368Y-85168828D02*
X186022082Y-85168828D01*
X186022082Y-85168828D02*
X185807796Y-85240257D01*
X185807796Y-85240257D02*
X185664939Y-85383114D01*
X185664939Y-85383114D02*
X185593510Y-85525971D01*
X185593510Y-85525971D02*
X185522082Y-85811685D01*
X185522082Y-85811685D02*
X185522082Y-86025971D01*
X185522082Y-86025971D02*
X185593510Y-86311685D01*
X185593510Y-86311685D02*
X185664939Y-86454542D01*
X185664939Y-86454542D02*
X185807796Y-86597400D01*
X185807796Y-86597400D02*
X186022082Y-86668828D01*
X186022082Y-86668828D02*
X186164939Y-86668828D01*
X186164939Y-86668828D02*
X186379225Y-86597400D01*
X186379225Y-86597400D02*
X186450653Y-86525971D01*
X186450653Y-86525971D02*
X186450653Y-86025971D01*
X186450653Y-86025971D02*
X186164939Y-86025971D01*
X187093510Y-86668828D02*
X187093510Y-85168828D01*
X187093510Y-85168828D02*
X187950653Y-86668828D01*
X187950653Y-86668828D02*
X187950653Y-85168828D01*
X188664939Y-86668828D02*
X188664939Y-85168828D01*
X188664939Y-85168828D02*
X189022082Y-85168828D01*
X189022082Y-85168828D02*
X189236368Y-85240257D01*
X189236368Y-85240257D02*
X189379225Y-85383114D01*
X189379225Y-85383114D02*
X189450654Y-85525971D01*
X189450654Y-85525971D02*
X189522082Y-85811685D01*
X189522082Y-85811685D02*
X189522082Y-86025971D01*
X189522082Y-86025971D02*
X189450654Y-86311685D01*
X189450654Y-86311685D02*
X189379225Y-86454542D01*
X189379225Y-86454542D02*
X189236368Y-86597400D01*
X189236368Y-86597400D02*
X189022082Y-86668828D01*
X189022082Y-86668828D02*
X188664939Y-86668828D01*
D11*
D12*
X219519571Y-93451900D02*
X220662429Y-93451900D01*
X220091000Y-94023328D02*
X220091000Y-92880471D01*
D11*
D12*
X202690796Y-103710828D02*
X201976510Y-103710828D01*
X201976510Y-103710828D02*
X201905082Y-104425114D01*
X201905082Y-104425114D02*
X201976510Y-104353685D01*
X201976510Y-104353685D02*
X202119368Y-104282257D01*
X202119368Y-104282257D02*
X202476510Y-104282257D01*
X202476510Y-104282257D02*
X202619368Y-104353685D01*
X202619368Y-104353685D02*
X202690796Y-104425114D01*
X202690796Y-104425114D02*
X202762225Y-104567971D01*
X202762225Y-104567971D02*
X202762225Y-104925114D01*
X202762225Y-104925114D02*
X202690796Y-105067971D01*
X202690796Y-105067971D02*
X202619368Y-105139400D01*
X202619368Y-105139400D02*
X202476510Y-105210828D01*
X202476510Y-105210828D02*
X202119368Y-105210828D01*
X202119368Y-105210828D02*
X201976510Y-105139400D01*
X201976510Y-105139400D02*
X201905082Y-105067971D01*
X203190796Y-103710828D02*
X203690796Y-105210828D01*
X203690796Y-105210828D02*
X204190796Y-103710828D01*
D11*
D12*
X167214114Y-80156285D02*
X167214114Y-79656285D01*
X167999828Y-79441999D02*
X167999828Y-80156285D01*
X167999828Y-80156285D02*
X166499828Y-80156285D01*
X166499828Y-80156285D02*
X166499828Y-79441999D01*
X167999828Y-78799142D02*
X166499828Y-78799142D01*
X166499828Y-78799142D02*
X167999828Y-77941999D01*
X167999828Y-77941999D02*
X166499828Y-77941999D01*
X166499828Y-77441998D02*
X166499828Y-76584856D01*
X167999828Y-77013427D02*
X166499828Y-77013427D01*
X167999828Y-75227713D02*
X167285542Y-75727713D01*
X167999828Y-76084856D02*
X166499828Y-76084856D01*
X166499828Y-76084856D02*
X166499828Y-75513427D01*
X166499828Y-75513427D02*
X166571257Y-75370570D01*
X166571257Y-75370570D02*
X166642685Y-75299141D01*
X166642685Y-75299141D02*
X166785542Y-75227713D01*
X166785542Y-75227713D02*
X166999828Y-75227713D01*
X166999828Y-75227713D02*
X167142685Y-75299141D01*
X167142685Y-75299141D02*
X167214114Y-75370570D01*
X167214114Y-75370570D02*
X167285542Y-75513427D01*
X167285542Y-75513427D02*
X167285542Y-76084856D01*
X167571257Y-74656284D02*
X167571257Y-73941999D01*
X167999828Y-74799141D02*
X166499828Y-74299141D01*
X166499828Y-74299141D02*
X167999828Y-73799141D01*
X167999828Y-73299142D02*
X166499828Y-73299142D01*
X166499828Y-73299142D02*
X166499828Y-72941999D01*
X166499828Y-72941999D02*
X166571257Y-72727713D01*
X166571257Y-72727713D02*
X166714114Y-72584856D01*
X166714114Y-72584856D02*
X166856971Y-72513427D01*
X166856971Y-72513427D02*
X167142685Y-72441999D01*
X167142685Y-72441999D02*
X167356971Y-72441999D01*
X167356971Y-72441999D02*
X167642685Y-72513427D01*
X167642685Y-72513427D02*
X167785542Y-72584856D01*
X167785542Y-72584856D02*
X167928400Y-72727713D01*
X167928400Y-72727713D02*
X167999828Y-72941999D01*
X167999828Y-72941999D02*
X167999828Y-73299142D01*
X167571257Y-71870570D02*
X167571257Y-71156285D01*
X167999828Y-72013427D02*
X166499828Y-71513427D01*
X166499828Y-71513427D02*
X167999828Y-71013427D01*
X169986257Y-76799142D02*
X169986257Y-76084857D01*
X170414828Y-76941999D02*
X168914828Y-76441999D01*
X168914828Y-76441999D02*
X170414828Y-75941999D01*
X170271971Y-74584857D02*
X170343400Y-74656285D01*
X170343400Y-74656285D02*
X170414828Y-74870571D01*
X170414828Y-74870571D02*
X170414828Y-75013428D01*
X170414828Y-75013428D02*
X170343400Y-75227714D01*
X170343400Y-75227714D02*
X170200542Y-75370571D01*
X170200542Y-75370571D02*
X170057685Y-75442000D01*
X170057685Y-75442000D02*
X169771971Y-75513428D01*
X169771971Y-75513428D02*
X169557685Y-75513428D01*
X169557685Y-75513428D02*
X169271971Y-75442000D01*
X169271971Y-75442000D02*
X169129114Y-75370571D01*
X169129114Y-75370571D02*
X168986257Y-75227714D01*
X168986257Y-75227714D02*
X168914828Y-75013428D01*
X168914828Y-75013428D02*
X168914828Y-74870571D01*
X168914828Y-74870571D02*
X168986257Y-74656285D01*
X168986257Y-74656285D02*
X169057685Y-74584857D01*
D11*
D12*
X211550286Y-78783328D02*
X210693143Y-78783328D01*
X211121714Y-78783328D02*
X211121714Y-77283328D01*
X211121714Y-77283328D02*
X210978857Y-77497614D01*
X210978857Y-77497614D02*
X210836000Y-77640471D01*
X210836000Y-77640471D02*
X210693143Y-77711900D01*
X212264571Y-78783328D02*
X212550285Y-78783328D01*
X212550285Y-78783328D02*
X212693142Y-78711900D01*
X212693142Y-78711900D02*
X212764571Y-78640471D01*
X212764571Y-78640471D02*
X212907428Y-78426185D01*
X212907428Y-78426185D02*
X212978857Y-78140471D01*
X212978857Y-78140471D02*
X212978857Y-77569042D01*
X212978857Y-77569042D02*
X212907428Y-77426185D01*
X212907428Y-77426185D02*
X212836000Y-77354757D01*
X212836000Y-77354757D02*
X212693142Y-77283328D01*
X212693142Y-77283328D02*
X212407428Y-77283328D01*
X212407428Y-77283328D02*
X212264571Y-77354757D01*
X212264571Y-77354757D02*
X212193142Y-77426185D01*
X212193142Y-77426185D02*
X212121714Y-77569042D01*
X212121714Y-77569042D02*
X212121714Y-77926185D01*
X212121714Y-77926185D02*
X212193142Y-78069042D01*
X212193142Y-78069042D02*
X212264571Y-78140471D01*
X212264571Y-78140471D02*
X212407428Y-78211900D01*
X212407428Y-78211900D02*
X212693142Y-78211900D01*
X212693142Y-78211900D02*
X212836000Y-78140471D01*
X212836000Y-78140471D02*
X212907428Y-78069042D01*
X212907428Y-78069042D02*
X212978857Y-77926185D01*
D11*
D12*
X186379225Y-103401257D02*
X186236368Y-103329828D01*
X186236368Y-103329828D02*
X186022082Y-103329828D01*
X186022082Y-103329828D02*
X185807796Y-103401257D01*
X185807796Y-103401257D02*
X185664939Y-103544114D01*
X185664939Y-103544114D02*
X185593510Y-103686971D01*
X185593510Y-103686971D02*
X185522082Y-103972685D01*
X185522082Y-103972685D02*
X185522082Y-104186971D01*
X185522082Y-104186971D02*
X185593510Y-104472685D01*
X185593510Y-104472685D02*
X185664939Y-104615542D01*
X185664939Y-104615542D02*
X185807796Y-104758400D01*
X185807796Y-104758400D02*
X186022082Y-104829828D01*
X186022082Y-104829828D02*
X186164939Y-104829828D01*
X186164939Y-104829828D02*
X186379225Y-104758400D01*
X186379225Y-104758400D02*
X186450653Y-104686971D01*
X186450653Y-104686971D02*
X186450653Y-104186971D01*
X186450653Y-104186971D02*
X186164939Y-104186971D01*
X187093510Y-104829828D02*
X187093510Y-103329828D01*
X187093510Y-103329828D02*
X187950653Y-104829828D01*
X187950653Y-104829828D02*
X187950653Y-103329828D01*
X188664939Y-104829828D02*
X188664939Y-103329828D01*
X188664939Y-103329828D02*
X189022082Y-103329828D01*
X189022082Y-103329828D02*
X189236368Y-103401257D01*
X189236368Y-103401257D02*
X189379225Y-103544114D01*
X189379225Y-103544114D02*
X189450654Y-103686971D01*
X189450654Y-103686971D02*
X189522082Y-103972685D01*
X189522082Y-103972685D02*
X189522082Y-104186971D01*
X189522082Y-104186971D02*
X189450654Y-104472685D01*
X189450654Y-104472685D02*
X189379225Y-104615542D01*
X189379225Y-104615542D02*
X189236368Y-104758400D01*
X189236368Y-104758400D02*
X189022082Y-104829828D01*
X189022082Y-104829828D02*
X188664939Y-104829828D01*
D11*
D12*
X210693143Y-61678185D02*
X210764571Y-61606757D01*
X210764571Y-61606757D02*
X210907429Y-61535328D01*
X210907429Y-61535328D02*
X211264571Y-61535328D01*
X211264571Y-61535328D02*
X211407429Y-61606757D01*
X211407429Y-61606757D02*
X211478857Y-61678185D01*
X211478857Y-61678185D02*
X211550286Y-61821042D01*
X211550286Y-61821042D02*
X211550286Y-61963900D01*
X211550286Y-61963900D02*
X211478857Y-62178185D01*
X211478857Y-62178185D02*
X210621714Y-63035328D01*
X210621714Y-63035328D02*
X211550286Y-63035328D01*
X212978857Y-63035328D02*
X212121714Y-63035328D01*
X212550285Y-63035328D02*
X212550285Y-61535328D01*
X212550285Y-61535328D02*
X212407428Y-61749614D01*
X212407428Y-61749614D02*
X212264571Y-61892471D01*
X212264571Y-61892471D02*
X212121714Y-61963900D01*
D11*
D12*
X167420400Y-67603285D02*
X167491828Y-67389000D01*
X167491828Y-67389000D02*
X167491828Y-67031857D01*
X167491828Y-67031857D02*
X167420400Y-66889000D01*
X167420400Y-66889000D02*
X167348971Y-66817571D01*
X167348971Y-66817571D02*
X167206114Y-66746142D01*
X167206114Y-66746142D02*
X167063257Y-66746142D01*
X167063257Y-66746142D02*
X166920400Y-66817571D01*
X166920400Y-66817571D02*
X166848971Y-66889000D01*
X166848971Y-66889000D02*
X166777542Y-67031857D01*
X166777542Y-67031857D02*
X166706114Y-67317571D01*
X166706114Y-67317571D02*
X166634685Y-67460428D01*
X166634685Y-67460428D02*
X166563257Y-67531857D01*
X166563257Y-67531857D02*
X166420400Y-67603285D01*
X166420400Y-67603285D02*
X166277542Y-67603285D01*
X166277542Y-67603285D02*
X166134685Y-67531857D01*
X166134685Y-67531857D02*
X166063257Y-67460428D01*
X166063257Y-67460428D02*
X165991828Y-67317571D01*
X165991828Y-67317571D02*
X165991828Y-66960428D01*
X165991828Y-66960428D02*
X166063257Y-66746142D01*
X167491828Y-65460429D02*
X166706114Y-65460429D01*
X166706114Y-65460429D02*
X166563257Y-65531857D01*
X166563257Y-65531857D02*
X166491828Y-65674714D01*
X166491828Y-65674714D02*
X166491828Y-65960429D01*
X166491828Y-65960429D02*
X166563257Y-66103286D01*
X167420400Y-65460429D02*
X167491828Y-65603286D01*
X167491828Y-65603286D02*
X167491828Y-65960429D01*
X167491828Y-65960429D02*
X167420400Y-66103286D01*
X167420400Y-66103286D02*
X167277542Y-66174714D01*
X167277542Y-66174714D02*
X167134685Y-66174714D01*
X167134685Y-66174714D02*
X166991828Y-66103286D01*
X166991828Y-66103286D02*
X166920400Y-65960429D01*
X166920400Y-65960429D02*
X166920400Y-65603286D01*
X166920400Y-65603286D02*
X166848971Y-65460429D01*
X167491828Y-64531857D02*
X167420400Y-64674714D01*
X167420400Y-64674714D02*
X167277542Y-64746143D01*
X167277542Y-64746143D02*
X165991828Y-64746143D01*
X167491828Y-63960429D02*
X166491828Y-63960429D01*
X165991828Y-63960429D02*
X166063257Y-64031857D01*
X166063257Y-64031857D02*
X166134685Y-63960429D01*
X166134685Y-63960429D02*
X166063257Y-63889000D01*
X166063257Y-63889000D02*
X165991828Y-63960429D01*
X165991828Y-63960429D02*
X166134685Y-63960429D01*
X167491828Y-62603286D02*
X165991828Y-62603286D01*
X167420400Y-62603286D02*
X167491828Y-62746143D01*
X167491828Y-62746143D02*
X167491828Y-63031857D01*
X167491828Y-63031857D02*
X167420400Y-63174714D01*
X167420400Y-63174714D02*
X167348971Y-63246143D01*
X167348971Y-63246143D02*
X167206114Y-63317571D01*
X167206114Y-63317571D02*
X166777542Y-63317571D01*
X166777542Y-63317571D02*
X166634685Y-63246143D01*
X166634685Y-63246143D02*
X166563257Y-63174714D01*
X166563257Y-63174714D02*
X166491828Y-63031857D01*
X166491828Y-63031857D02*
X166491828Y-62746143D01*
X166491828Y-62746143D02*
X166563257Y-62603286D01*
X167491828Y-61246143D02*
X166706114Y-61246143D01*
X166706114Y-61246143D02*
X166563257Y-61317571D01*
X166563257Y-61317571D02*
X166491828Y-61460428D01*
X166491828Y-61460428D02*
X166491828Y-61746143D01*
X166491828Y-61746143D02*
X166563257Y-61889000D01*
X167420400Y-61246143D02*
X167491828Y-61389000D01*
X167491828Y-61389000D02*
X167491828Y-61746143D01*
X167491828Y-61746143D02*
X167420400Y-61889000D01*
X167420400Y-61889000D02*
X167277542Y-61960428D01*
X167277542Y-61960428D02*
X167134685Y-61960428D01*
X167134685Y-61960428D02*
X166991828Y-61889000D01*
X166991828Y-61889000D02*
X166920400Y-61746143D01*
X166920400Y-61746143D02*
X166920400Y-61389000D01*
X166920400Y-61389000D02*
X166848971Y-61246143D01*
X169478257Y-65496142D02*
X169478257Y-64781857D01*
X169906828Y-65638999D02*
X168406828Y-65138999D01*
X168406828Y-65138999D02*
X169906828Y-64638999D01*
X169763971Y-63281857D02*
X169835400Y-63353285D01*
X169835400Y-63353285D02*
X169906828Y-63567571D01*
X169906828Y-63567571D02*
X169906828Y-63710428D01*
X169906828Y-63710428D02*
X169835400Y-63924714D01*
X169835400Y-63924714D02*
X169692542Y-64067571D01*
X169692542Y-64067571D02*
X169549685Y-64139000D01*
X169549685Y-64139000D02*
X169263971Y-64210428D01*
X169263971Y-64210428D02*
X169049685Y-64210428D01*
X169049685Y-64210428D02*
X168763971Y-64139000D01*
X168763971Y-64139000D02*
X168621114Y-64067571D01*
X168621114Y-64067571D02*
X168478257Y-63924714D01*
X168478257Y-63924714D02*
X168406828Y-63710428D01*
X168406828Y-63710428D02*
X168406828Y-63567571D01*
X168406828Y-63567571D02*
X168478257Y-63353285D01*
X168478257Y-63353285D02*
X168549685Y-63281857D01*
D11*
D12*
X211264571Y-68051900D02*
X212407429Y-68051900D01*
D13*
%TO.P,Screen1,1,Pin_1*%
%TO.N,D22*%
X219979000Y-57390000D03*
D14*
%TO.P,Screen1,2,Pin_2*%
%TO.N,D21*%
X219979000Y-62390000D03*
%TO.P,Screen1,3,Pin_3*%
%TO.N,GND2*%
X219979000Y-67390000D03*
%TO.P,Screen1,4,Pin_4*%
%TO.N,3V3*%
X219979000Y-72390000D03*
%TD*%
D15*
%TO.P,R3,1*%
%TO.N,D19*%
X211582000Y-80772000D03*
D16*
%TO.P,R3,2*%
%TO.N,3V3*%
X211582000Y-88392000D03*
%TD*%
D13*
%TO.P,J3,1,Pin_1*%
%TO.N,D19*%
X220233000Y-79154000D03*
D14*
%TO.P,J3,2,Pin_2*%
%TO.N,GND2*%
X220233000Y-84154000D03*
%TO.P,J3,3,Pin_3*%
%TO.N,3V3*%
X220233000Y-89154000D03*
%TD*%
D17*
%TO.P,H1,1*%
%TO.N,N/C*%
X159258000Y-52578000D03*
%TD*%
%TO.P,H3,1*%
%TO.N,N/C*%
X223012000Y-107696000D03*
%TD*%
D18*
%TO.P,J_esp0,1,Pin_1*%
%TO.N,EN*%
X181344040Y-52865800D03*
D19*
%TO.P,J_esp0,2,Pin_2*%
%TO.N,VP*%
X181344040Y-55405800D03*
%TO.P,J_esp0,3,Pin_3*%
%TO.N,VN*%
X181344040Y-57945800D03*
D20*
%TO.P,J_esp0,4,Pin_4*%
%TO.N,D34*%
X181344040Y-60485800D03*
%TO.P,J_esp0,5,Pin_5*%
%TO.N,D35*%
X181344040Y-63025800D03*
%TO.P,J_esp0,6,Pin_6*%
%TO.N,D32*%
X181344040Y-65565800D03*
%TO.P,J_esp0,7,Pin_7*%
%TO.N,D33*%
X181344040Y-68105800D03*
%TO.P,J_esp0,8,Pin_8*%
%TO.N,D25*%
X181344040Y-70645800D03*
%TO.P,J_esp0,9,Pin_9*%
%TO.N,D26*%
X181344040Y-73185800D03*
%TO.P,J_esp0,10,Pin_10*%
%TO.N,D27*%
X181344040Y-75725800D03*
%TO.P,J_esp0,11,Pin_11*%
%TO.N,D14*%
X181344040Y-78265800D03*
%TO.P,J_esp0,12,Pin_12*%
%TO.N,D12*%
X181344040Y-80805800D03*
%TO.P,J_esp0,13,Pin_13*%
%TO.N,D13*%
X181344040Y-83345800D03*
%TO.P,J_esp0,14,Pin_14*%
%TO.N,GND5V*%
X181344040Y-85885800D03*
%TO.P,J_esp0,15,Pin_15*%
%TO.N,5v*%
X181344040Y-88425800D03*
%TD*%
D21*
%TO.P,J_esp1,1,Pin_1*%
%TO.N,3V3*%
X205884540Y-88504800D03*
D20*
%TO.P,J_esp1,2,Pin_2*%
%TO.N,GND2*%
X205884540Y-85964800D03*
%TO.P,J_esp1,3,Pin_3*%
%TO.N,D15*%
X205884540Y-83424800D03*
%TO.P,J_esp1,4,Pin_4*%
%TO.N,D2*%
X205884540Y-80884800D03*
%TO.P,J_esp1,5,Pin_5*%
%TO.N,D4*%
X205884540Y-78344800D03*
%TO.P,J_esp1,6,Pin_6*%
%TO.N,RX2*%
X205884540Y-75804800D03*
%TO.P,J_esp1,7,Pin_7*%
%TO.N,TX2*%
X205884540Y-73264800D03*
%TO.P,J_esp1,8,Pin_8*%
%TO.N,D5*%
X205884540Y-70724800D03*
%TO.P,J_esp1,9,Pin_9*%
%TO.N,D18*%
X205884540Y-68184800D03*
%TO.P,J_esp1,10,Pin_10*%
%TO.N,D19*%
X205884540Y-65644800D03*
%TO.P,J_esp1,11,Pin_11*%
%TO.N,D21*%
X205884540Y-63104800D03*
%TO.P,J_esp1,12,Pin_12*%
%TO.N,RX0*%
X205884540Y-60564800D03*
%TO.P,J_esp1,13,Pin_13*%
%TO.N,TX0*%
X205884540Y-58024800D03*
%TO.P,J_esp1,14,Pin_14*%
%TO.N,D22*%
X205884540Y-55484800D03*
%TO.P,J_esp1,15,Pin_15*%
%TO.N,D23*%
X205884540Y-52944800D03*
%TD*%
D17*
%TO.P,H2,1*%
%TO.N,N/C*%
X155788240Y-107569000D03*
%TD*%
%TO.P,H4,1*%
%TO.N,N/C*%
X194310000Y-52578000D03*
%TD*%
D22*
%TO.P,Q1,1,A1*%
%TO.N,AC1_IN*%
X156479000Y-100118250D03*
D23*
%TO.P,Q1,2,A2*%
%TO.N,Net-(J_AC_LOAD1-Pin_1)*%
X160289000Y-100118250D03*
%TO.P,Q1,3,G*%
%TO.N,Net-(Q1-G)*%
X164099000Y-100118250D03*
%TD*%
D24*
%TO.P,5V1,1,Pin_1*%
%TO.N,5v*%
X198135000Y-104394000D03*
D25*
%TO.P,5V1,2,Pin_2*%
%TO.N,GND5V*%
X193135000Y-104394000D03*
%TD*%
D15*
%TO.P,R2,1*%
%TO.N,Net-(R2-Pad1)*%
X172713750Y-100076000D03*
D16*
%TO.P,R2,2*%
%TO.N,Net-(Q1-G)*%
X167633750Y-100076000D03*
%TD*%
D15*
%TO.P,U1,1*%
%TO.N,Net-(R1-Pad2)*%
X183769000Y-102997000D03*
%TO.P,U1,2*%
%TO.N,GND5V*%
X183769000Y-100457000D03*
%TO.P,U1,3,NC*%
%TO.N,unconnected-(U1-NC-Pad3)*%
X183769000Y-97917000D03*
%TO.P,U1,4*%
%TO.N,Net-(R2-Pad1)*%
X176149000Y-97917000D03*
%TO.P,U1,5,NC*%
%TO.N,unconnected-(U1-NC-Pad5)*%
X176149000Y-100457000D03*
%TO.P,U1,6*%
%TO.N,Net-(J_AC_LOAD1-Pin_1)*%
X176149000Y-102997000D03*
%TD*%
%TO.P,R1,1*%
%TO.N,D18*%
X187826750Y-109093000D03*
D16*
%TO.P,R1,2*%
%TO.N,Net-(R1-Pad2)*%
X182746750Y-109093000D03*
%TD*%
D13*
%TO.P,J_AC_INPUT1,1,Pin_1*%
%TO.N,AC1_IN*%
X158623000Y-78279000D03*
D14*
%TO.P,J_AC_INPUT1,2,Pin_2*%
%TO.N,AC2_IN*%
X158623000Y-73279000D03*
%TD*%
D13*
%TO.P,J_AC_LOAD1,1,Pin_1*%
%TO.N,Net-(J_AC_LOAD1-Pin_1)*%
X158623000Y-66929000D03*
D14*
%TO.P,J_AC_LOAD1,2,Pin_2*%
%TO.N,AC2_IN*%
X158623000Y-61929000D03*
%TD*%
D26*
%TO.N,D19*%
X220233000Y-79154000D02*
X219243000Y-79154000D01*
X219243000Y-79154000D02*
X219210000Y-79121000D01*
%TO.N,D21*%
X205898740Y-63119000D02*
X205884540Y-63104800D01*
%TD*%
M02*
