%TF.GenerationSoftware,KiCad,Pcbnew,8.0.1*%
%TF.CreationDate,2024-04-25T16:48:04-05:00*%
%TF.ProjectId,C1,43312e6b-6963-4616-945f-706362585858,rev?*%
%TF.SameCoordinates,Original*%
%TF.FileFunction,Soldermask,Top*%
%TF.FilePolarity,Negative*%
%FSLAX46Y46*%
G04 Gerber Fmt 4.6, Leading zero omitted, Abs format (unit mm)*
G04 Created by KiCad (PCBNEW 8.0.1) date 2024-04-25 16:48:04*
%MOMM*%
%LPD*%
G01*
G04 APERTURE LIST*
G04 Aperture macros list*
%AMRoundRect*
0 Rectangle with rounded corners*
0 $1 Rounding radius*
0 $2 $3 $4 $5 $6 $7 $8 $9 X,Y pos of 4 corners*
0 Add a 4 corners polygon primitive as box body*
4,1,4,$2,$3,$4,$5,$6,$7,$8,$9,$2,$3,0*
0 Add four circle primitives for the rounded corners*
1,1,$1+$1,$2,$3*
1,1,$1+$1,$4,$5*
1,1,$1+$1,$6,$7*
1,1,$1+$1,$8,$9*
0 Add four rect primitives between the rounded corners*
20,1,$1+$1,$2,$3,$4,$5,0*
20,1,$1+$1,$4,$5,$6,$7,0*
20,1,$1+$1,$6,$7,$8,$9,0*
20,1,$1+$1,$8,$9,$2,$3,0*%
%AMHorizOval*
0 Thick line with rounded ends*
0 $1 width*
0 $2 $3 position (X,Y) of the first rounded end (center of the circle)*
0 $4 $5 position (X,Y) of the second rounded end (center of the circle)*
0 Add line between two ends*
20,1,$1,$2,$3,$4,$5,0*
0 Add two circle primitives to create the rounded ends*
1,1,$1,$2,$3*
1,1,$1,$4,$5*%
G04 Aperture macros list end*
%ADD10RoundRect,0.102000X-1.750000X-0.925000X1.750000X-0.925000X1.750000X0.925000X-1.750000X0.925000X0*%
%ADD11O,3.204000X2.054000*%
%ADD12R,2.000000X2.500000*%
%ADD13O,2.500000X2.500000*%
%ADD14C,6.000000*%
%ADD15O,1.850000X3.000000*%
%ADD16R,3.960000X2.500000*%
%ADD17O,3.960000X2.500000*%
%ADD18R,2.500000X1.850000*%
%ADD19O,2.500000X1.850000*%
%ADD20HorizOval,1.850000X-0.406586X0.406586X0.406586X-0.406586X0*%
%ADD21O,2.500000X3.960000*%
%ADD22R,2.500000X3.960000*%
%ADD23R,2.500000X1.600000*%
%ADD24O,2.500000X1.600000*%
%ADD25C,2.000000*%
G04 APERTURE END LIST*
D10*
%TO.C,U2*%
X126100000Y-58985000D03*
D11*
X126100000Y-61525000D03*
X126100000Y-64065000D03*
X126100000Y-66605000D03*
X126100000Y-69145000D03*
X126100000Y-71685000D03*
X126100000Y-74225000D03*
X126100000Y-76765000D03*
X126100000Y-79305000D03*
X126100000Y-81845000D03*
X126100000Y-84385000D03*
X126100000Y-86925000D03*
X126100000Y-89465000D03*
X126100000Y-92005000D03*
X126100000Y-94545000D03*
X151500000Y-94545000D03*
X151500000Y-92005000D03*
X151500000Y-89465000D03*
X151500000Y-86925000D03*
X151500000Y-84385000D03*
X151500000Y-81845000D03*
X151500000Y-79305000D03*
X151500000Y-76765000D03*
X151500000Y-74225000D03*
X151500000Y-71685000D03*
X151500000Y-69145000D03*
X151500000Y-66605000D03*
X151500000Y-64065000D03*
X151500000Y-61525000D03*
X151500000Y-58985000D03*
%TD*%
D12*
%TO.C,Q1*%
X95200000Y-72116000D03*
D13*
X95200000Y-68560000D03*
X95200000Y-65004000D03*
%TD*%
D14*
%TO.C,H3*%
X164200000Y-53000000D03*
%TD*%
D15*
%TO.C,R2*%
X102540000Y-76200000D03*
X100000000Y-76200000D03*
%TD*%
D16*
%TO.C,J1*%
X79300000Y-62265000D03*
D17*
X79300000Y-57265000D03*
%TD*%
D16*
%TO.C,J2*%
X79300000Y-73465000D03*
D17*
X79300000Y-68465000D03*
%TD*%
D12*
%TO.C,Q2*%
X95245000Y-83356000D03*
D13*
X95245000Y-79800000D03*
X95245000Y-76244000D03*
%TD*%
D16*
%TO.C,J4*%
X79300000Y-95900000D03*
D17*
X79300000Y-90900000D03*
%TD*%
%TO.C,J12*%
X160900000Y-71500000D03*
X160900000Y-66500000D03*
D16*
X160900000Y-61500000D03*
%TD*%
D18*
%TO.C,U1*%
X113900000Y-69225000D03*
D19*
X113900000Y-66685000D03*
X113900000Y-64145000D03*
X106280000Y-64145000D03*
X106280000Y-66685000D03*
X106280000Y-69225000D03*
%TD*%
D16*
%TO.C,J3*%
X79300000Y-84700000D03*
D17*
X79300000Y-79700000D03*
%TD*%
D20*
%TO.C,R4*%
X121548927Y-89961073D03*
X119752876Y-91757124D03*
%TD*%
D14*
%TO.C,H2*%
X76900000Y-103600000D03*
%TD*%
D21*
%TO.C,J5*%
X121000000Y-55300000D03*
D22*
X116000000Y-55300000D03*
%TD*%
D14*
%TO.C,H1*%
X165800000Y-104300000D03*
%TD*%
D18*
%TO.C,U4*%
X114000000Y-91725000D03*
D19*
X114000000Y-89185000D03*
X114000000Y-86645000D03*
X106380000Y-86645000D03*
X106380000Y-89185000D03*
X106380000Y-91725000D03*
%TD*%
D14*
%TO.C,H4*%
X92300000Y-53200000D03*
%TD*%
D16*
%TO.C,J7*%
X160900000Y-82700000D03*
D17*
X160900000Y-77700000D03*
%TD*%
%TO.C,J6*%
X160900000Y-93900000D03*
X160900000Y-88900000D03*
%TD*%
D20*
%TO.C,R5*%
X121268927Y-79361073D03*
X119472876Y-81157124D03*
%TD*%
%TO.C,R6*%
X121678927Y-69121073D03*
X119882876Y-70917124D03*
%TD*%
D15*
%TO.C,R6*%
X155400000Y-98600000D03*
X157940000Y-98600000D03*
%TD*%
%TO.C,R1*%
X102545000Y-65000000D03*
X100005000Y-65000000D03*
%TD*%
D12*
%TO.C,Q3*%
X95145000Y-94556000D03*
D13*
X95145000Y-91000000D03*
X95145000Y-87444000D03*
%TD*%
D23*
%TO.C,U3*%
X114000000Y-80425000D03*
D24*
X114000000Y-77885000D03*
X114000000Y-75345000D03*
D19*
X106380000Y-75345000D03*
X106380000Y-77885000D03*
X106380000Y-80425000D03*
%TD*%
D15*
%TO.C,R3*%
X102540000Y-87400000D03*
X100000000Y-87400000D03*
%TD*%
D25*
X117570000Y-76530000D03*
X117230000Y-87660000D03*
X117670000Y-65320000D03*
X152010000Y-51450000D03*
X131175000Y-58985000D03*
M02*
