M48
; DRILL file {KiCad 8.0.1} date 2024-04-25T16:48:07-0500
; FORMAT={-:-/ absolute / inch / decimal}
; #@! TF.CreationDate,2024-04-25T16:48:07-05:00
; #@! TF.GenerationSoftware,Kicad,Pcbnew,8.0.1
; #@! TF.FileFunction,Plated,1,2,PTH
FMAT,2
INCH
; #@! TA.AperFunction,Plated,PTH,ViaDrill
T1C0.0315
; #@! TA.AperFunction,Plated,PTH,ComponentDrill
T2C0.0315
; #@! TA.AperFunction,Plated,PTH,ComponentDrill
T3C0.0394
; #@! TA.AperFunction,Plated,PTH,ComponentDrill
T4C0.0402
; #@! TA.AperFunction,Plated,PTH,ComponentDrill
T5C0.0433
; #@! TA.AperFunction,Plated,PTH,ComponentDrill
T6C0.0520
; #@! TA.AperFunction,Plated,PTH,ComponentDrill
T7C0.1181
%
G90
G05
T1
X4.6154Y-3.4512
X4.6287Y-3.013
X4.6327Y-2.5717
X5.1644Y-2.3222
X5.9846Y-2.0256
T2
X3.937Y-3.0
X3.937Y-3.4409
X3.9372Y-2.5591
X4.037Y-3.0
X4.037Y-3.4409
X4.0372Y-2.5591
X4.1843Y-2.5254
X4.1843Y-2.6254
X4.1843Y-2.7254
X4.1882Y-2.9663
X4.1882Y-3.0663
X4.1882Y-3.1663
X4.1882Y-3.4112
X4.1882Y-3.5112
X4.1882Y-3.6112
X4.4843Y-2.5254
X4.4843Y-2.6254
X4.4843Y-2.7254
X4.4882Y-2.9663
X4.4882Y-3.0663
X4.4882Y-3.1663
X4.4882Y-3.4112
X4.4882Y-3.5112
X4.4882Y-3.6112
X4.7037Y-3.1952
X4.7147Y-3.6125
X4.7198Y-2.792
X4.7744Y-3.1245
X4.7854Y-3.5418
X4.7905Y-2.7213
X6.1181Y-3.8819
X6.2181Y-3.8819
T3
X3.7459Y-3.4427
X3.7459Y-3.5827
X3.7459Y-3.7227
T4
X4.9646Y-2.3222
X4.9646Y-2.4222
X4.9646Y-2.5222
X4.9646Y-2.6222
X4.9646Y-2.7222
X4.9646Y-2.8222
X4.9646Y-2.9222
X4.9646Y-3.0222
X4.9646Y-3.1222
X4.9646Y-3.2222
X4.9646Y-3.3222
X4.9646Y-3.4222
X4.9646Y-3.5222
X4.9646Y-3.6222
X4.9646Y-3.7222
X5.9646Y-2.3222
X5.9646Y-2.4222
X5.9646Y-2.5222
X5.9646Y-2.6222
X5.9646Y-2.7222
X5.9646Y-2.8222
X5.9646Y-2.9222
X5.9646Y-3.0222
X5.9646Y-3.1222
X5.9646Y-3.2222
X5.9646Y-3.3222
X5.9646Y-3.4222
X5.9646Y-3.5222
X5.9646Y-3.6222
X5.9646Y-3.7222
T5
X3.748Y-2.5592
X3.748Y-2.6992
X3.748Y-2.8392
X3.7498Y-3.0017
X3.7498Y-3.1417
X3.7498Y-3.2817
T6
X3.122Y-2.2545
X3.122Y-2.4514
X3.122Y-2.6955
X3.122Y-2.8923
X3.122Y-3.1378
X3.122Y-3.3346
X3.122Y-3.5787
X3.122Y-3.7756
X4.5669Y-2.1772
X4.7638Y-2.1772
X6.3346Y-2.4213
X6.3346Y-2.6181
X6.3346Y-2.815
X6.3346Y-3.0591
X6.3346Y-3.2559
X6.3346Y-3.5
X6.3346Y-3.6969
T7
X3.0276Y-4.0787
X3.6339Y-2.0945
X6.4646Y-2.0866
X6.5276Y-4.1063
M30
